<?xml version="1.0" standalone="no"?>
<!DOCTYPE svg PUBLIC "-//W3C//DTD SVG 20010904//EN"
 "http://www.w3.org/TR/2001/REC-SVG-20010904/DTD/svg10.dtd">
<svg version="1.0" xmlns="http://www.w3.org/2000/svg"
 width="1000.000000pt" height="1000.000000pt" viewBox="0 0 1000.000000 1000.000000"
 preserveAspectRatio="xMidYMid meet">
<metadata>
Created by potrace 1.11, written by Peter Selinger 2001-2013
</metadata>
<g transform="translate(0.000000,1000.000000) scale(0.100000,-0.100000)"
fill="#000000" stroke="none">
<path d="M4870 8989 c-2648 -373 -4818 -678 -4821 -679 -8 0 -19 -3418 -19
-5864 l0 -1999 113 -62 c63 -33 118 -60 123 -58 5 1 2186 309 4848 682 2661
374 4840 682 4842 684 3 2 8 1771 12 3931 l7 3927 -111 60 c-78 41 -122 59
-145 58 -19 -1 -2201 -307 -4849 -680z m2917 -580 c30 -15 52 -35 71 -67 l27
-47 0 -725 c0 -666 -1 -729 -18 -775 -35 -102 -117 -165 -213 -165 -61 0 -103
25 -141 81 l-28 42 -5 423 c-3 286 -9 427 -16 434 -12 12 -58 -42 -563 -665
-655 -806 -877 -1052 -1141 -1258 -479 -376 -1065 -543 -1567 -446 -214 41
-405 125 -638 280 -166 110 -182 114 -267 57 -184 -122 -394 -169 -597 -134
-163 29 -330 116 -418 221 -65 78 -138 208 -171 307 -82 247 -58 499 73 758
270 537 834 744 1266 465 214 -138 333 -361 346 -645 6 -148 -10 -261 -58
-396 -17 -49 -34 -106 -36 -127 -5 -33 -1 -42 31 -72 46 -44 200 -139 292
-181 102 -46 246 -90 343 -104 139 -21 362 -8 502 28 231 60 481 182 686 336
171 128 325 286 588 601 480 576 995 1206 1010 1234 14 28 14 29 -13 34 -29 6
-407 -40 -600 -73 -64 -11 -130 -18 -147 -14 -81 17 -140 71 -165 147 -21 66
8 153 72 218 66 65 97 73 598 143 256 36 526 74 600 85 184 26 243 26 297 0z
m-2037 -3073 c0 -2 -14 -75 -30 -162 -45 -239 -56 -371 -41 -513 26 -253 105
-467 254 -691 87 -130 237 -325 257 -334 14 -6 32 -2 67 18 232 128 308 151
508 150 136 0 157 -2 230 -27 114 -38 199 -91 285 -177 104 -105 163 -209 207
-371 14 -51 18 -101 17 -239 -1 -156 -3 -186 -27 -275 -48 -178 -133 -330
-261 -464 -133 -139 -304 -248 -462 -293 -66 -19 -102 -23 -214 -22 -120 0
-144 3 -220 28 -47 16 -107 40 -135 53 -178 89 -311 267 -371 499 -22 83 -26
121 -27 239 0 153 18 256 69 377 55 132 54 137 -40 242 -217 246 -350 466
-435 721 -70 213 -87 330 -96 685 -8 272 -6 278 86 327 28 16 121 74 207 130
144 94 172 110 172 99z m-655 -397 c19 -111 -23 -215 -141 -354 -194 -229
-702 -850 -728 -891 -39 -59 -38 -89 6 -199 52 -130 63 -190 62 -350 -1 -156
-23 -262 -84 -409 -123 -294 -416 -553 -709 -627 -71 -18 -105 -21 -210 -17
-83 3 -143 11 -176 22 -264 93 -450 290 -527 561 -19 69 -23 102 -22 235 1
134 4 168 27 253 101 378 381 686 711 781 163 48 307 45 478 -9 89 -28 106
-25 154 27 17 18 192 230 389 471 260 318 368 444 399 462 27 15 76 29 141 40
55 8 125 22 155 29 30 8 58 15 62 15 3 1 9 -17 13 -40z"/>
<path d="M2845 6853 c-244 -88 -410 -361 -375 -618 21 -150 122 -287 248 -336
114 -44 289 -21 395 53 175 121 267 288 267 484 0 184 -92 337 -246 406 -68
30 -218 36 -289 11z"/>
<path d="M6568 3351 c-86 -28 -137 -62 -210 -140 -118 -125 -174 -273 -166
-442 4 -81 10 -107 36 -162 101 -216 338 -293 560 -181 196 98 313 284 314
500 1 199 -76 330 -240 407 -86 40 -205 48 -294 18z"/>
<path d="M3340 3507 c-89 -32 -135 -63 -207 -141 -69 -73 -134 -194 -152 -284
-34 -165 10 -332 116 -434 253 -245 673 -73 773 318 45 175 8 335 -105 453
-77 81 -132 104 -260 108 -86 3 -109 0 -165 -20z"/>
</g>
</svg>
